<?xml version="1.0" encoding="UTF-8"?>
<svg id="Layer_2" data-name="Layer 2" xmlns="http://www.w3.org/2000/svg" viewBox="0 0 83.68 83">
  <defs>
    <style>
      .cls-1 {
        fill: #000;
        stroke-width: 0px;
      }
    </style>
  </defs>
  <g id="Layer_1-2" data-name="Layer 1">
    <path class="cls-1" d="M67.74,28.73h-10.5l-1.99,9.91h10.64c4.47,0,7.16-2.18,7.16-5.41,0-2.6-1.7-4.5-5.32-4.5ZM65.68,50.25h-11.25c-.88,0-1.64.61-1.81,1.47l-1.49,7.37-1.17,5.79s-.02.08-.03.12l-.28,1.35h-14.39l.62-3.08,9.31-46.14h30.56C68.14,6.75,55.8,0,41.87,0,18.74,0,0,18.58,0,41.5c0,.62.02,1.24.04,1.86h11.54l-.99,4.85c-.85,4.08.92,6.68,4.61,6.68,3.47,0,5.11-2.39,5.82-5.77l6.16-30.52.3-1.47h14.4l-1.92,9.45-4.9,24.16c-2.13,10.48-9.43,16.59-20.85,16.59-2,0-3.89-.24-5.64-.67,7.65,9.93,19.72,16.34,33.29,16.34,22.42,0,40.73-17.47,41.81-39.43-3.72,4.27-9.95,6.68-18,6.68Z"/>
  </g>
</svg>