<svg width="26" height="26" viewBox="0 0 26 26" fill="none" xmlns="http://www.w3.org/2000/svg">
<path d="M24.3913 6.51981C22.9074 6.51981 21.5384 6.02824 20.439 5.19899C19.1781 4.24836 18.2721 2.85391 17.9522 1.24668C17.873 0.849572 17.8303 0.439767 17.8263 0.0198059H13.5876V11.602L13.5825 17.9461C13.5825 19.6422 12.478 21.0803 10.9469 21.5861C10.5026 21.7329 10.0227 21.8024 9.52303 21.775C8.88521 21.74 8.28752 21.5475 7.76803 21.2367C6.66252 20.5755 5.91299 19.3761 5.89267 18.004C5.86068 15.8595 7.59436 14.1111 9.73732 14.1111C10.1603 14.1111 10.5666 14.1802 10.9469 14.3056V11.1399V10.0019C10.5458 9.94246 10.1375 9.91149 9.72463 9.91149C7.37904 9.91149 5.18529 10.8865 3.61717 12.643C2.43193 13.9704 1.721 15.664 1.61131 17.4398C1.4676 19.7727 2.32123 21.9903 3.9767 23.6265C4.21994 23.8667 4.47537 24.0896 4.74248 24.2953C6.16182 25.3876 7.89701 25.9797 9.72463 25.9797C10.1375 25.9797 10.5458 25.9492 10.9469 25.8898C12.6542 25.6369 14.2294 24.8554 15.4726 23.6265C17.0001 22.1168 17.844 20.1124 17.8532 17.9791L17.8313 8.50535C18.5601 9.0675 19.3568 9.53266 20.212 9.89371C21.5419 10.4548 22.9521 10.7392 24.4035 10.7387V7.66086V6.51879C24.4045 6.51981 24.3923 6.51981 24.3913 6.51981Z" fill="white"/>
</svg>
