<svg width="729" height="726" viewBox="0 0 729 726" fill="none" xmlns="http://www.w3.org/2000/svg">
<path d="M364.393 1.5L364.705 2.00415H364.28V1.5H364.393ZM371.603 11.2523H372.015V11.7379H371.903L371.603 11.2523Z" fill="white" stroke="#191B1E" stroke-width="3"/>
<mask id="path-2-inside-1_6129_775" fill="white">
<path d="M365.07 720.787C365.07 721.297 365.154 721.723 365.33 722.085C365.506 722.447 365.747 722.734 366.053 722.966C366.359 723.197 366.721 723.364 367.119 723.466C367.518 723.568 367.954 723.624 368.426 723.624C368.936 723.624 369.363 723.568 369.724 723.448C370.086 723.327 370.373 723.179 370.596 722.993C370.818 722.808 370.976 722.595 371.078 722.354C371.18 722.113 371.226 721.872 371.226 721.622C371.226 721.112 371.115 720.741 370.883 720.5C370.651 720.259 370.401 720.092 370.132 719.99C369.659 719.814 369.112 719.656 368.491 719.499C367.87 719.341 367.101 719.146 366.183 718.896C365.617 718.748 365.145 718.553 364.765 718.312C364.385 718.071 364.088 717.802 363.865 717.506C363.643 717.209 363.485 716.894 363.393 716.56C363.3 716.226 363.254 715.883 363.254 715.54C363.254 714.873 363.393 714.298 363.671 713.807C363.949 713.315 364.32 712.917 364.774 712.592C365.228 712.268 365.747 712.036 366.331 711.878C366.915 711.721 367.499 711.647 368.093 711.647C368.788 711.647 369.437 711.739 370.049 711.916C370.66 712.092 371.198 712.361 371.662 712.722C372.125 713.084 372.496 713.519 372.765 714.048C373.034 714.576 373.173 715.179 373.173 715.874H370.855C370.79 715.021 370.503 714.419 369.984 714.066C369.465 713.714 368.806 713.538 368 713.538C367.731 713.538 367.453 713.566 367.166 713.621C366.878 713.677 366.619 713.77 366.387 713.899C366.155 714.029 365.96 714.205 365.803 714.428C365.645 714.65 365.571 714.928 365.571 715.262C365.571 715.735 365.719 716.096 366.007 716.365C366.294 716.634 366.674 716.829 367.147 716.968C367.193 716.977 367.388 717.033 367.731 717.125C368.074 717.218 368.454 717.32 368.871 717.431C369.288 717.543 369.706 717.654 370.104 717.756C370.503 717.858 370.79 717.941 370.966 717.988C371.402 718.127 371.773 718.312 372.097 718.544C372.422 718.776 372.691 719.044 372.904 719.35C373.117 719.656 373.284 719.981 373.386 720.324C373.488 720.667 373.543 721.019 373.543 721.362C373.543 722.104 373.395 722.734 373.089 723.262C372.783 723.791 372.385 724.217 371.893 724.551C371.402 724.885 370.837 725.126 370.206 725.283C369.576 725.441 368.936 725.515 368.278 725.515C367.527 725.515 366.813 725.422 366.146 725.237C365.478 725.052 364.894 724.764 364.403 724.384C363.912 724.004 363.513 723.513 363.216 722.91C362.92 722.308 362.762 721.603 362.753 720.787H365.07Z"/>
</mask>
<path d="M365.07 720.787C365.07 721.297 365.154 721.723 365.33 722.085C365.506 722.447 365.747 722.734 366.053 722.966C366.359 723.197 366.721 723.364 367.119 723.466C367.518 723.568 367.954 723.624 368.426 723.624C368.936 723.624 369.363 723.568 369.724 723.448C370.086 723.327 370.373 723.179 370.596 722.993C370.818 722.808 370.976 722.595 371.078 722.354C371.18 722.113 371.226 721.872 371.226 721.622C371.226 721.112 371.115 720.741 370.883 720.5C370.651 720.259 370.401 720.092 370.132 719.99C369.659 719.814 369.112 719.656 368.491 719.499C367.87 719.341 367.101 719.146 366.183 718.896C365.617 718.748 365.145 718.553 364.765 718.312C364.385 718.071 364.088 717.802 363.865 717.506C363.643 717.209 363.485 716.894 363.393 716.56C363.3 716.226 363.254 715.883 363.254 715.54C363.254 714.873 363.393 714.298 363.671 713.807C363.949 713.315 364.32 712.917 364.774 712.592C365.228 712.268 365.747 712.036 366.331 711.878C366.915 711.721 367.499 711.647 368.093 711.647C368.788 711.647 369.437 711.739 370.049 711.916C370.66 712.092 371.198 712.361 371.662 712.722C372.125 713.084 372.496 713.519 372.765 714.048C373.034 714.576 373.173 715.179 373.173 715.874H370.855C370.79 715.021 370.503 714.419 369.984 714.066C369.465 713.714 368.806 713.538 368 713.538C367.731 713.538 367.453 713.566 367.166 713.621C366.878 713.677 366.619 713.77 366.387 713.899C366.155 714.029 365.96 714.205 365.803 714.428C365.645 714.65 365.571 714.928 365.571 715.262C365.571 715.735 365.719 716.096 366.007 716.365C366.294 716.634 366.674 716.829 367.147 716.968C367.193 716.977 367.388 717.033 367.731 717.125C368.074 717.218 368.454 717.32 368.871 717.431C369.288 717.543 369.706 717.654 370.104 717.756C370.503 717.858 370.79 717.941 370.966 717.988C371.402 718.127 371.773 718.312 372.097 718.544C372.422 718.776 372.691 719.044 372.904 719.35C373.117 719.656 373.284 719.981 373.386 720.324C373.488 720.667 373.543 721.019 373.543 721.362C373.543 722.104 373.395 722.734 373.089 723.262C372.783 723.791 372.385 724.217 371.893 724.551C371.402 724.885 370.837 725.126 370.206 725.283C369.576 725.441 368.936 725.515 368.278 725.515C367.527 725.515 366.813 725.422 366.146 725.237C365.478 725.052 364.894 724.764 364.403 724.384C363.912 724.004 363.513 723.513 363.216 722.91C362.92 722.308 362.762 721.603 362.753 720.787H365.07Z" fill="white"/>
<path d="M365.07 720.787H368.07V717.787H365.07V720.787ZM370.132 719.99L371.196 717.185L371.188 717.182L371.179 717.179L370.132 719.99ZM368.491 719.499L367.753 722.406L368.491 719.499ZM366.183 718.896L366.972 716.002L366.958 715.998L366.944 715.994L366.183 718.896ZM373.173 715.874V718.874H376.173V715.874H373.173ZM370.855 715.874L367.864 716.102L368.075 718.874H370.855V715.874ZM367.147 716.968L366.301 719.846L366.428 719.883L366.559 719.91L367.147 716.968ZM370.966 717.988L371.878 715.13L371.805 715.106L371.73 715.086L370.966 717.988ZM362.753 720.787V717.787H359.719L359.753 720.821L362.753 720.787ZM362.07 720.787C362.07 721.62 362.207 722.524 362.633 723.399L368.027 720.771C368.044 720.806 368.056 720.837 368.064 720.861C368.072 720.886 368.076 720.901 368.077 720.906C368.078 720.915 368.07 720.88 368.07 720.787H362.07ZM362.633 723.399C363.019 724.192 363.567 724.846 364.242 725.357L367.865 720.574C367.887 720.592 367.921 720.622 367.957 720.664C367.992 720.707 368.015 720.746 368.027 720.771L362.633 723.399ZM364.242 725.357C364.904 725.859 365.639 726.184 366.376 726.373L367.863 720.56C367.833 720.552 367.82 720.546 367.822 720.547C367.824 720.548 367.84 720.556 367.865 720.574L364.242 725.357ZM366.376 726.373C367.031 726.54 367.717 726.624 368.426 726.624V720.624C368.19 720.624 368.005 720.596 367.863 720.56L366.376 726.373ZM368.426 726.624C369.139 726.624 369.909 726.548 370.673 726.294L368.775 720.602C368.816 720.588 368.733 720.624 368.426 720.624V726.624ZM370.673 726.294C371.27 726.095 371.923 725.792 372.516 725.298L368.675 720.689C368.75 720.626 368.807 720.594 368.828 720.583C368.847 720.574 368.834 720.582 368.775 720.602L370.673 726.294ZM372.516 725.298C373.089 724.821 373.544 724.224 373.841 723.523L368.315 721.185C368.408 720.965 368.547 720.795 368.675 720.689L372.516 725.298ZM373.841 723.523C374.103 722.902 374.226 722.262 374.226 721.622H368.226C368.226 721.559 368.232 721.485 368.248 721.403C368.265 721.321 368.288 721.247 368.315 721.185L373.841 723.523ZM374.226 721.622C374.226 720.754 374.047 719.462 373.045 718.42L368.72 722.579C368.182 722.019 368.226 721.469 368.226 721.622H374.226ZM373.045 718.42C372.537 717.891 371.92 717.46 371.196 717.185L369.068 722.795C368.882 722.724 368.766 722.626 368.72 722.579L373.045 718.42ZM371.179 717.179C370.559 716.948 369.892 716.759 369.229 716.591L367.753 722.406C368.332 722.553 368.76 722.68 369.085 722.801L371.179 717.179ZM369.229 716.591C368.607 716.433 367.861 716.244 366.972 716.002L365.394 721.79C366.34 722.049 367.133 722.249 367.753 722.406L369.229 716.591ZM366.944 715.994C366.593 715.902 366.425 715.813 366.371 715.779L363.158 720.846C363.864 721.293 364.641 721.593 365.422 721.798L366.944 715.994ZM366.371 715.779C366.248 715.701 366.237 715.668 366.265 715.706L361.465 719.306C361.938 719.936 362.521 720.441 363.158 720.846L366.371 715.779ZM366.265 715.706C366.257 715.694 366.258 715.693 366.264 715.705C366.27 715.717 366.277 715.735 366.283 715.757L360.502 717.363C360.702 718.081 361.035 718.731 361.465 719.306L366.265 715.706ZM366.283 715.757C366.263 715.686 366.254 715.613 366.254 715.54H360.254C360.254 716.154 360.336 716.767 360.502 717.363L366.283 715.757ZM366.254 715.54C366.254 715.415 366.267 715.342 366.274 715.31C366.282 715.28 366.286 715.276 366.281 715.285L361.06 712.329C360.485 713.344 360.254 714.446 360.254 715.54H366.254ZM366.281 715.285C366.329 715.2 366.393 715.122 366.518 715.034L363.03 710.151C362.246 710.711 361.568 711.431 361.06 712.329L366.281 715.285ZM366.518 715.034C366.634 714.95 366.814 714.855 367.113 714.775L365.55 708.982C364.68 709.217 363.822 709.586 363.03 710.151L366.518 715.034ZM367.113 714.775C367.434 714.688 367.755 714.647 368.093 714.647V708.647C367.244 708.647 366.397 708.754 365.55 708.982L367.113 714.775ZM368.093 714.647C368.516 714.647 368.885 714.703 369.219 714.799L370.879 709.033C369.988 708.776 369.06 708.647 368.093 708.647V714.647ZM369.219 714.799C369.493 714.877 369.68 714.981 369.817 715.088L373.507 710.357C372.717 709.74 371.828 709.306 370.879 709.033L369.219 714.799ZM369.817 715.088C369.957 715.198 370.035 715.298 370.091 715.408L375.439 712.687C374.957 711.741 374.293 710.97 373.507 710.357L369.817 715.088ZM370.091 715.408C370.12 715.466 370.173 715.593 370.173 715.874H376.173C376.173 714.764 375.947 713.686 375.439 712.687L370.091 715.408ZM373.173 712.874H370.855V718.874H373.173V712.874ZM373.846 715.646C373.74 714.25 373.204 712.626 371.668 711.584L368.299 716.549C368.203 716.484 368.115 716.404 368.039 716.315C367.965 716.227 367.916 716.144 367.886 716.082C367.83 715.965 367.852 715.945 367.864 716.102L373.846 715.646ZM371.668 711.584C370.53 710.812 369.241 710.538 368 710.538V716.538C368.187 716.538 368.289 716.559 368.327 716.569C368.359 716.577 368.341 716.577 368.299 716.549L371.668 711.584ZM368 710.538C367.524 710.538 367.055 710.587 366.596 710.676L367.736 716.567C367.851 716.544 367.938 716.538 368 716.538V710.538ZM366.596 710.676C366.026 710.786 365.459 710.981 364.921 711.282L367.853 716.517C367.778 716.559 367.731 716.568 367.736 716.567L366.596 710.676ZM364.921 711.282C364.29 711.635 363.763 712.117 363.355 712.694L368.251 716.162C368.158 716.293 368.02 716.423 367.853 716.517L364.921 711.282ZM363.355 712.694C362.748 713.551 362.571 714.485 362.571 715.262H368.571C368.571 715.372 368.543 715.75 368.251 716.162L363.355 712.694ZM362.571 715.262C362.571 716.43 362.972 717.634 363.957 718.556L368.056 714.174C368.226 714.334 368.373 714.542 368.468 714.779C368.558 715.006 368.571 715.184 368.571 715.262H362.571ZM363.957 718.556C364.687 719.238 365.532 719.62 366.301 719.846L367.994 714.09C367.909 714.065 367.885 714.05 367.901 714.058C367.919 714.068 367.98 714.103 368.056 714.174L363.957 718.556ZM366.559 719.91C366.495 719.897 366.45 719.885 366.448 719.885C366.438 719.882 366.434 719.881 366.442 719.884C366.458 719.888 366.486 719.895 366.535 719.909C366.627 719.934 366.77 719.973 366.948 720.022L368.514 714.229C368.349 714.185 368.223 714.15 368.12 714.122C368.072 714.109 368.021 714.095 367.977 714.083C367.955 714.077 367.926 714.07 367.894 714.062C367.872 714.056 367.81 714.041 367.735 714.026L366.559 719.91ZM366.948 720.022C367.295 720.115 367.679 720.218 368.098 720.33L369.644 714.533C369.229 714.422 368.853 714.321 368.514 714.229L366.948 720.022ZM368.098 720.33C368.512 720.44 368.945 720.556 369.361 720.662L370.848 714.849C370.467 714.752 370.065 714.645 369.644 714.533L368.098 720.33ZM369.361 720.662C369.537 720.707 369.691 720.749 369.825 720.786C369.943 720.818 370.095 720.86 370.203 720.889L371.73 715.086C371.706 715.08 371.2 714.94 370.848 714.849L369.361 720.662ZM370.054 720.846C370.216 720.897 370.302 720.948 370.354 720.985L373.841 716.103C373.244 715.676 372.588 715.356 371.878 715.13L370.054 720.846ZM370.354 720.985C370.419 721.031 370.439 721.06 370.443 721.066L375.365 717.635C374.943 717.029 374.425 716.52 373.841 716.103L370.354 720.985ZM370.443 721.066C370.508 721.16 370.516 721.197 370.51 721.179L376.261 719.469C376.052 718.764 375.726 718.152 375.365 717.635L370.443 721.066ZM370.51 721.179C370.539 721.275 370.543 721.339 370.543 721.362H376.543C376.543 720.699 376.437 720.059 376.261 719.469L370.51 721.179ZM370.543 721.362C370.543 721.701 370.478 721.785 370.493 721.759L375.686 724.765C376.312 723.683 376.543 722.506 376.543 721.362H370.543ZM370.493 721.759C370.412 721.899 370.324 721.99 370.208 722.069L373.579 727.033C374.445 726.444 375.155 725.683 375.686 724.765L370.493 721.759ZM370.208 722.069C370.05 722.176 369.82 722.288 369.479 722.373L370.934 728.194C371.853 727.964 372.754 727.593 373.579 727.033L370.208 722.069ZM369.479 722.373C369.101 722.467 368.707 722.515 368.278 722.515V728.515C369.165 728.515 370.05 728.415 370.934 728.194L369.479 722.373ZM368.278 722.515C367.774 722.515 367.332 722.453 366.949 722.346L365.343 728.127C366.294 728.392 367.28 728.515 368.278 728.515V722.515ZM366.949 722.346C366.62 722.255 366.394 722.131 366.239 722.011L362.567 726.757C363.395 727.397 364.337 727.848 365.343 728.127L366.949 722.346ZM366.239 722.011C366.128 721.926 366.014 721.801 365.908 721.585L360.525 724.235C361.012 725.225 361.695 726.082 362.567 726.757L366.239 722.011ZM365.908 721.585C365.841 721.449 365.758 721.199 365.753 720.753L359.753 720.821C359.767 722.007 359.999 723.166 360.525 724.235L365.908 721.585ZM362.753 723.787H365.07V717.787H362.753V723.787Z" fill="#191B1E" mask="url(#path-2-inside-1_6129_775)"/>
<path d="M368.148 653.541C528.92 653.541 659.252 523.209 659.252 362.437C659.252 201.665 528.92 71.3335 368.148 71.3335C207.376 71.3335 77.0439 201.665 77.0439 362.437C77.0439 523.209 207.376 653.541 368.148 653.541Z" stroke="#191B1E" stroke-width="3" stroke-miterlimit="10"/>
<path d="M368.148 700.921V23.9531" stroke="#191B1E" stroke-width="3" stroke-miterlimit="10"/>
<path d="M29.6641 362.438H706.632" stroke="#191B1E" stroke-width="3" stroke-miterlimit="10"/>
<path d="M162.303 568.283L573.994 156.601" stroke="#191B1E" stroke-width="3" stroke-miterlimit="10"/>
<path d="M162.303 156.601L573.994 568.283" stroke="#191B1E" stroke-width="3" stroke-miterlimit="10"/>
<mask id="path-9-inside-2_6129_775" fill="white">
<path d="M719.017 355.819H728.546V357.821H721.334V361.289H728.009V363.18H721.334V367.055H728.676V369.057H719.017V355.819Z"/>
</mask>
<path d="M719.017 355.819H728.546V357.821H721.334V361.289H728.009V363.18H721.334V367.055H728.676V369.057H719.017V355.819Z" fill="white"/>
<path d="M719.017 355.819V352.819H716.017V355.819H719.017ZM728.546 355.819H731.546V352.819H728.546V355.819ZM728.546 357.821V360.821H731.546V357.821H728.546ZM721.334 357.821V354.821H718.334V357.821H721.334ZM721.334 361.289H718.334V364.289H721.334V361.289ZM728.009 361.289H731.009V358.289H728.009V361.289ZM728.009 363.18V366.18H731.009V363.18H728.009ZM721.334 363.18V360.18H718.334V363.18H721.334ZM721.334 367.055H718.334V370.055H721.334V367.055ZM728.676 367.055H731.676V364.055H728.676V367.055ZM728.676 369.057V372.057H731.676V369.057H728.676ZM719.017 369.057H716.017V372.057H719.017V369.057ZM719.017 358.819H728.546V352.819H719.017V358.819ZM725.546 355.819V357.821H731.546V355.819H725.546ZM728.546 354.821H721.334V360.821H728.546V354.821ZM718.334 357.821V361.289H724.334V357.821H718.334ZM721.334 364.289H728.009V358.289H721.334V364.289ZM725.009 361.289V363.18H731.009V361.289H725.009ZM728.009 360.18H721.334V366.18H728.009V360.18ZM718.334 363.18V367.055H724.334V363.18H718.334ZM721.334 370.055H728.676V364.055H721.334V370.055ZM725.676 367.055V369.057H731.676V367.055H725.676ZM728.676 366.057H719.017V372.057H728.676V366.057ZM722.017 369.057V355.819H716.017V369.057H722.017Z" fill="#191B1E" mask="url(#path-9-inside-2_6129_775)"/>
<path d="M4.64177 367.557L4.61155 367.442H4.74636H4.75642L4.72572 367.557H4.64177ZM8.57867 357.434L8.60895 357.319H8.66253L8.69197 357.434H8.62132H8.58423H8.57867ZM12.4003 367.442H12.4221H12.4592H12.5167L12.4851 367.557H12.4303L12.4003 367.442Z" fill="white" stroke="#191B1E" stroke-width="3"/>
</svg>
