<svg width="26" height="26" viewBox="0 0 26 26" fill="none" xmlns="http://www.w3.org/2000/svg">
<path d="M23.399 23.4V15.782C23.399 12.038 22.593 9.17801 18.225 9.17801C16.119 9.17801 14.715 10.322 14.143 11.414H14.091V9.51601H9.95703V23.4H14.273V16.51C14.273 14.69 14.611 12.948 16.847 12.948C19.057 12.948 19.083 15.002 19.083 16.614V23.374H23.399V23.4Z" fill="white"/>
<path d="M2.9375 9.51599H7.2535V23.4H2.9375V9.51599Z" fill="white"/>
<path d="M5.09561 2.60001C3.71761 2.60001 2.59961 3.71801 2.59961 5.09601C2.59961 6.47401 3.71761 7.61801 5.09561 7.61801C6.47361 7.61801 7.59161 6.47401 7.59161 5.09601C7.59161 3.71801 6.47361 2.60001 5.09561 2.60001Z" fill="white"/>
</svg>
