<svg width="26" height="26" viewBox="0 0 26 26" fill="none" xmlns="http://www.w3.org/2000/svg">
<g clip-path="url(#clip0_6129_1040)">
<path d="M25.9748 7.64407C25.9139 6.26259 25.6905 5.31284 25.3705 4.48986C25.0403 3.61629 24.5324 2.83419 23.867 2.18402C23.2168 1.52374 22.4295 1.01066 21.5661 0.685681C20.7383 0.365657 19.7935 0.142255 18.4121 0.0813452C17.0203 0.015277 16.5784 0 13.0484 0C9.51845 0 9.07661 0.015277 7.68997 0.0761868C6.30849 0.137096 5.35873 0.360697 4.53596 0.680522C3.66219 1.01066 2.88009 1.51858 2.22992 2.18402C1.56963 2.83419 1.05676 3.62145 0.731579 4.4849C0.411555 5.31284 0.188153 6.25743 0.127244 7.63891C0.0611755 9.03071 0.0458984 9.47255 0.0458984 13.0025C0.0458984 16.5325 0.0611755 16.9744 0.122085 18.361C0.182995 19.7425 0.406595 20.6922 0.726619 21.5152C1.05676 22.3888 1.56963 23.1709 2.22992 23.8211C2.88009 24.4813 3.66735 24.9944 4.5308 25.3194C5.35873 25.6394 6.30333 25.8628 7.68501 25.9237C9.07145 25.9848 9.51349 25.9999 13.0435 25.9999C16.5735 25.9999 17.0153 25.9848 18.4019 25.9237C19.7834 25.8628 20.7332 25.6394 21.556 25.3194C23.3033 24.6438 24.6848 23.2624 25.3603 21.5152C25.6802 20.6873 25.9038 19.7425 25.9647 18.361C26.0256 16.9744 26.0409 16.5325 26.0409 13.0025C26.0409 9.47255 26.0357 9.03071 25.9748 7.64407ZM23.6334 18.2594C23.5775 19.5292 23.3642 20.2149 23.1864 20.672C22.7496 21.8047 21.8506 22.7037 20.7179 23.1405C20.2608 23.3183 19.5701 23.5316 18.3053 23.5873C16.934 23.6484 16.5227 23.6635 13.0536 23.6635C9.58452 23.6635 9.16807 23.6484 7.80167 23.5873C6.53189 23.5316 5.84621 23.3183 5.38909 23.1405C4.82543 22.9322 4.31236 22.6021 3.89591 22.1703C3.46418 21.7487 3.13404 21.2408 2.92572 20.6772C2.74795 20.22 2.53467 19.5292 2.47891 18.2646C2.41781 16.8932 2.40273 16.4817 2.40273 13.0127C2.40273 9.54358 2.41781 9.12713 2.47891 7.76093C2.53467 6.49115 2.74795 5.80547 2.92572 5.34835C3.13404 4.78449 3.46418 4.27162 3.90107 3.85497C4.32248 3.42325 4.83039 3.0931 5.39425 2.88498C5.85137 2.70721 6.54221 2.49393 7.80683 2.43798C9.17819 2.37707 9.58968 2.36179 13.0586 2.36179C16.5328 2.36179 16.9441 2.37707 18.3105 2.43798C19.5803 2.49393 20.2659 2.70721 20.7231 2.88498C21.2867 3.0931 21.7998 3.42325 22.2162 3.85497C22.648 4.27658 22.9781 4.78449 23.1864 5.34835C23.3642 5.80547 23.5775 6.49611 23.6334 7.76093C23.6943 9.13229 23.7096 9.54358 23.7096 13.0127C23.7096 16.4817 23.6943 16.8881 23.6334 18.2594Z" fill="white"/>
<path d="M13.0482 6.32352C9.36086 6.32352 6.36914 9.31504 6.36914 13.0026C6.36914 16.6901 9.36086 19.6816 13.0482 19.6816C16.7357 19.6816 19.7272 16.6901 19.7272 13.0026C19.7272 9.31504 16.7357 6.32352 13.0482 6.32352ZM13.0482 17.3351C10.656 17.3351 8.71565 15.3949 8.71565 13.0026C8.71565 10.6102 10.656 8.67003 13.0482 8.67003C15.4405 8.67003 17.3807 10.6102 17.3807 13.0026C17.3807 15.3949 15.4405 17.3351 13.0482 17.3351Z" fill="white"/>
<path d="M21.5503 6.05943C21.5503 6.9205 20.8522 7.61868 19.9909 7.61868C19.1298 7.61868 18.4316 6.9205 18.4316 6.05943C18.4316 5.19816 19.1298 4.50018 19.9909 4.50018C20.8522 4.50018 21.5503 5.19816 21.5503 6.05943Z" fill="white"/>
</g>
<defs>
<clipPath id="clip0_6129_1040">
<rect width="26" height="26" fill="white"/>
</clipPath>
</defs>
</svg>
