<svg width="312" height="320" viewBox="0 0 312 320" fill="none" xmlns="http://www.w3.org/2000/svg">
<path d="M312 160C312 248.366 242.156 320 156 320C69.8436 320 0 248.366 0 160C0 71.6344 69.8436 0 156 0C242.156 0 312 71.6344 312 160Z" fill="black"/>
<path d="M282 160C282 229.588 225.588 286 156 286C86.4121 286 30 229.588 30 160C30 90.4121 86.4121 34 156 34C225.588 34 282 90.4121 282 160Z" fill="black"/>
<path d="M233.903 121.239H202.288L196.307 151.339H228.351C241.808 151.339 249.925 144.723 249.925 134.898C249.925 126.998 244.801 121.239 233.903 121.239ZM227.705 186.559H193.813C191.159 186.559 188.882 188.425 188.357 191.027L180.33 230.977C180.305 231.099 180.273 231.22 180.241 231.335L179.409 235.445H136.07L165.978 86.0121H258.022C235.105 54.4993 197.945 34 155.981 34C86.3485 34 29.9043 90.4098 29.9043 160C29.9043 161.892 29.9555 163.771 30.0386 165.638H64.8005L61.8072 180.365C59.2425 192.746 64.5831 200.647 75.6928 200.647C86.1566 200.647 91.0751 193.392 93.2113 183.139L112.649 86.0057H156.013L135.501 188.048C129.093 219.855 107.09 238.43 72.6995 238.43C66.6618 238.43 60.9758 237.714 55.7183 236.385C78.7565 266.536 115.092 286 155.981 286C223.503 286 278.63 232.952 281.904 166.277C270.692 179.246 251.952 186.559 227.705 186.559Z" fill="white"/>
</svg>
