<svg width="290" height="83" viewBox="0 0 290 83" fill="none" xmlns="http://www.w3.org/2000/svg">
<path d="M289.944 31.6913C287.941 36.3378 283.334 39.3526 278.237 39.3526H89.9513C89.8112 36.3883 89.3822 33.4977 88.6919 30.7081H289.287C289.799 30.7081 290.143 31.2261 289.941 31.6913H289.944ZM264.589 52.2708C269.686 52.2708 274.293 49.256 276.296 44.6075C276.495 44.1422 276.149 43.6264 275.639 43.6264H261.949H218.028H89.9535C89.8154 46.5907 89.3864 49.4813 88.6983 52.2708H264.589ZM213.428 26.068C212.878 25.2154 212.27 24.4069 211.603 23.6448C208.11 19.6468 202.985 17.4236 197.65 17.4236H188.275C184.641 17.4236 181.075 18.4594 178.046 20.4489C175.693 21.9963 173.597 23.8953 171.817 26.068H213.428ZM263.463 26.068C264.009 26.068 264.455 25.6259 264.455 25.0848C262.452 20.4384 257.846 17.4236 252.749 17.4236H223.314L221.57 26.068H263.463ZM129.054 56.9341H114.63L112.887 65.5785H127.297L129.054 56.9341ZM160.907 56.9341H146.512L144.755 65.5785H159.163L160.907 56.9341ZM168.925 57.4162C172.318 62.5658 178.189 65.5764 184.395 65.5764H194.073C197.756 65.5764 201.373 64.5237 204.418 62.4732C206.706 60.9342 208.74 59.0626 210.473 56.9341H168.614C168.716 57.0962 168.818 57.2583 168.925 57.4183V57.4162ZM83 65.5764H96.6967L98.4446 56.932H87.2753C86.1582 59.9805 84.7182 62.8732 83 65.5764ZM87.2753 26.068H117.047L118.78 17.4236H82.9979C84.7182 20.1247 86.1582 23.0195 87.2732 26.068H87.2753ZM120.858 26.068H135.259L137.009 17.4236H122.601L120.858 26.068ZM152.72 26.068H167.134L168.878 17.4236H154.47L152.72 26.068ZM255.917 56.9341H238.873L240.944 65.5785H252.759C253.09 65.5785 253.422 65.5322 253.743 65.4459C253.76 65.4417 253.774 65.4374 253.789 65.4332C256.009 64.8143 257.317 62.269 256.676 59.831L255.915 56.9362L255.917 56.9341ZM213.428 65.5764H229.635L231.204 56.932H214.984L213.428 65.5764ZM67.7401 28.7334H57.242L55.2562 38.6473H65.8966C70.3652 38.6473 73.0604 36.4683 73.0604 33.2324C73.0604 30.6303 71.3592 28.7334 67.7401 28.7334ZM65.6821 50.2476H54.4279C53.5465 50.2476 52.7904 50.8623 52.6162 51.7192L51.1232 59.0899L49.9508 64.8774C49.9423 64.9174 49.9317 64.9574 49.9211 64.9953L49.645 66.3491H35.2538L35.876 63.269L45.1849 17.131H75.7492C68.1394 6.75175 55.7999 0 41.8653 0C18.743 0 0 18.5794 0 41.5C0 42.1232 0.0169908 42.7421 0.0446008 43.3569H11.5877L10.5938 48.2075C9.74209 52.2855 11.5155 54.8877 15.2046 54.8877C18.6792 54.8877 20.3125 52.4982 21.0219 49.1213L27.1789 18.6026L27.4762 17.1289H41.8759L39.9602 26.5796L35.0647 50.7381C32.9366 61.2142 25.6306 67.3322 14.2107 67.3322C12.2058 67.3322 10.3177 67.0964 8.57185 66.6585C16.222 76.5893 28.2875 83 41.8653 83C64.2868 83 82.5922 65.528 83.6796 43.5674C79.9565 47.8391 73.7336 50.2476 65.6821 50.2476Z" fill="#F8F9FA"/>
</svg>
