<svg width="884" height="252" viewBox="0 0 884 252" fill="none" xmlns="http://www.w3.org/2000/svg">
<path fill-rule="evenodd" clip-rule="evenodd" d="M241.523 34.7612L296.883 35.7033L274.128 149.077H315.462L338.217 35.7033H382.892L389.572 2.92308H206.762C219.996 11.6061 231.739 22.3745 241.523 34.7612ZM253.222 199.058C257.999 190.846 262.001 182.126 265.127 173H881.809C883.383 173 884.441 174.561 883.821 175.964H883.827C877.669 189.97 863.504 199.058 847.831 199.058H253.222ZM220.345 238C229.511 230.346 237.728 221.592 244.792 211.942H839.844C841.411 211.942 842.476 213.496 841.862 214.899C835.703 228.912 821.539 238 805.865 238H220.345ZM622.846 152C607.816 152 594.873 149.286 584.017 143.857C573.161 138.289 564.811 130.703 558.966 121.099C553.121 111.495 550.198 100.359 550.198 87.6923C550.198 74.8865 552.425 63.1941 556.878 52.6154C561.332 41.8974 567.595 32.641 575.667 24.8462C583.739 16.9121 593.342 10.7876 604.475 6.47253C615.749 2.15751 628.065 0 641.426 0C656.457 0 669.4 2.78388 680.255 8.35165C691.111 13.7802 699.461 21.2967 705.306 30.9011C711.152 40.5055 714.074 51.641 714.074 64.3077C714.074 77.1136 711.847 88.8755 707.394 99.5934C702.94 110.172 696.678 119.429 688.606 127.363C680.534 135.158 670.861 141.212 659.588 145.527C648.454 149.842 636.207 152 622.846 152ZM626.395 117.758C633.632 117.758 640.034 116.436 645.601 113.791C651.307 111.147 656.109 107.458 660.006 102.725C664.042 97.8535 667.103 92.3553 669.191 86.2308C671.279 80.1062 672.322 73.6337 672.322 66.8132C672.322 60.2711 670.931 54.5641 668.147 49.6923C665.503 44.8205 661.606 41.0623 656.457 38.4176C651.446 35.6337 645.253 34.2418 637.877 34.2418C630.779 34.2418 624.377 35.5641 618.671 38.2088C612.965 40.8535 608.094 44.6117 604.058 49.4835C600.161 54.2161 597.169 59.6447 595.081 65.7692C592.994 71.8938 591.95 78.3663 591.95 85.1868C591.95 91.5898 593.272 97.2967 595.916 102.308C598.7 107.179 602.597 111.007 607.607 113.791C612.756 116.436 619.019 117.758 626.395 117.758ZM543.797 2.92308H502.462L491.481 57.8352H435.325L446.306 2.92308H404.971L375.745 149.077H417.079L428.478 92.0769H484.634L473.236 149.077H514.57L543.797 2.92308ZM749.71 2.92308L720.484 149.077H761.818L769.555 110.242H790.354L812.129 149.077H855.343L830.478 105.343C832.715 104.564 834.88 103.691 836.972 102.725C847.827 97.7143 856.178 90.685 862.023 81.6374C868.007 72.4506 871 61.7326 871 49.4835C871 34.8681 865.85 23.4542 855.551 15.2418C845.392 7.0293 830.918 2.92308 812.129 2.92308H749.71ZM775.896 78.2967H800.439C809.624 78.2967 816.722 76.1392 821.732 71.8242C826.743 67.5092 829.248 61.3846 829.248 53.4506C829.248 47.326 827.23 42.8022 823.194 39.8791C819.158 36.9561 813.521 35.4945 806.284 35.4945H784.564L775.896 78.2967Z" fill="#F8F9FA"/>
<path d="M203.921 87.2386H172.318L166.34 117.339H198.372C211.824 117.339 219.937 110.723 219.937 100.898C219.937 92.9979 214.816 87.2386 203.921 87.2386ZM197.726 152.559H163.847C161.193 152.559 158.917 154.425 158.393 157.027L153.898 179.406L150.369 196.977C150.344 197.099 150.312 197.22 150.28 197.335L149.448 201.445H106.126L107.999 192.094L136.022 52.0121H228.031C205.123 20.4993 167.977 0 126.029 0C56.4228 0 0 56.4098 0 126C0 127.892 0.0511481 129.771 0.134264 131.638H34.883L31.8909 146.365C29.3271 158.746 34.6656 166.647 45.7712 166.647C56.231 166.647 61.1476 159.392 63.283 149.139L81.8178 56.4801L82.7129 52.0057H126.061L120.294 80.6996L105.557 154.048C99.1507 185.855 77.157 204.43 42.779 204.43C36.7435 204.43 31.0597 203.714 25.8042 202.385C48.8337 232.536 85.1552 252 126.029 252C193.525 252 248.631 198.952 251.905 132.277C240.697 145.246 221.964 152.559 197.726 152.559Z" fill="white"/>
</svg>
