<svg width="96" height="96" viewBox="0 0 96 96" fill="none" xmlns="http://www.w3.org/2000/svg">
<circle cx="48" cy="48" r="48" fill="url(#paint0_linear_104_241)"/>
<circle cx="48" cy="48" r="42.383" fill="#1B1821"/>
<path d="M58.3105 54.6807H49.6462V49.4822H72.1733V54.6807H63.5091V67.1573H72.1733V72.3558L49.6462 72.3558V67.1573H58.3105V54.6807Z" fill="url(#paint1_linear_104_241)"/>
<path d="M54.8448 23.4894V37.8352L58.1741 41.1645H66.9748V23.4894H72.1733V46.363H55.8845L49.6462 40.1248V23.4894H54.8448Z" fill="url(#paint2_linear_104_241)"/>
<path d="M46.5271 49.4822V66.1176L40.2888 72.3558H24V59.8793H29.1986V67.1573H37.9992L41.3285 63.828V54.6807H35.4368V49.4822H46.5271Z" fill="url(#paint3_linear_104_241)"/>
<path fill-rule="evenodd" clip-rule="evenodd" d="M24 23.4894H46.8736V39.4316H40.8257L46.8736 46.363H39.4224L33.3744 39.4316H29.1986L29.1986 46.363H24V34.2331H28.8384L24 28.6879V23.4894ZM31.4513 28.6879L36.2897 34.2331H41.6751V28.6879L31.4513 28.6879Z" fill="url(#paint4_linear_104_241)"/>
<defs>
<linearGradient id="paint0_linear_104_241" x1="93.2346" y1="11.8033" x2="15.3136" y2="85.303" gradientUnits="userSpaceOnUse">
<stop stop-color="#D615EB"/>
<stop offset="1" stop-color="#8436F5"/>
</linearGradient>
<linearGradient id="paint1_linear_104_241" x1="85.6896" y1="16.9046" x2="9.83305" y2="75.3231" gradientUnits="userSpaceOnUse">
<stop stop-color="#D615EB"/>
<stop offset="1" stop-color="#8436F5"/>
</linearGradient>
<linearGradient id="paint2_linear_104_241" x1="81.1841" y1="15.8648" x2="14.9609" y2="80.629" gradientUnits="userSpaceOnUse">
<stop stop-color="#D615EB"/>
<stop offset="1" stop-color="#8436F5"/>
</linearGradient>
<linearGradient id="paint3_linear_104_241" x1="81.1841" y1="17.9443" x2="15.6578" y2="82.3696" gradientUnits="userSpaceOnUse">
<stop stop-color="#D615EB"/>
<stop offset="1" stop-color="#8436F5"/>
</linearGradient>
<linearGradient id="paint4_linear_104_241" x1="81.1841" y1="16.2114" x2="18.0355" y2="83.0118" gradientUnits="userSpaceOnUse">
<stop stop-color="#D615EB"/>
<stop offset="1" stop-color="#8436F5"/>
</linearGradient>
</defs>
</svg>
