<svg width="734" height="178" viewBox="0 0 734 178" fill="none" xmlns="http://www.w3.org/2000/svg">
<path d="M230.76 177.5H194.04L167.88 133.58H85.32L99.72 108.86H153.24L114.36 43.58L35.16 177.5H0.36L100.68 10.46C104.28 4.46 108.84 0.619988 115.56 0.619988C122.28 0.619988 126.6 4.46 130.2 10.46L230.76 177.5ZM393.379 177.5H298.819C250.099 177.5 214.099 139.1 214.099 88.46C214.099 37.1 250.099 3.01999 298.819 3.01999H393.379V33.5H298.819C267.619 33.5 244.579 56.78 244.579 89.9C244.579 122.78 267.379 147.02 298.819 147.02H393.379V177.5ZM566.923 177.5H410.923V3.01999H566.683V33.5H441.163V147.02H566.923V177.5ZM560.203 101.66H463.483V75.98H560.203V101.66ZM733.673 177.5H585.833V3.01999H616.313V147.02H733.673V177.5Z" fill="white"/>
</svg>
