<svg width="90" height="90" viewBox="0 0 90 90" fill="none" xmlns="http://www.w3.org/2000/svg">
<rect width="90" height="90" rx="20" fill="#000F25"/>
<g clip-path="url(#clip0_6129_725)">
<path d="M24.9512 52.5548H21.9217L19.7634 48.9686H12.9519L14.1399 46.9502H18.5555L15.3478 41.6199L8.81351 52.5548H5.94238L14.2191 38.9155C14.5161 38.4256 14.8924 38.1121 15.4468 38.1121C16.0012 38.1121 16.3576 38.4256 16.6546 38.9155L24.9512 52.5548ZM38.9619 52.5548H31.1604C27.1408 52.5548 24.1707 49.4193 24.1707 45.2844C24.1707 41.0908 27.1408 38.308 31.1604 38.308H38.9619V40.7968H31.1604C28.5863 40.7968 26.6854 42.6977 26.6854 45.402C26.6854 48.0868 28.5663 50.066 31.1604 50.066H38.9619V52.5548ZM55.3788 52.5548H47.5772C43.5577 52.5548 40.5876 49.4193 40.5876 45.2844C40.5876 41.0908 43.5577 38.308 47.5772 38.308H55.3788V40.7968H47.5772C45.0031 40.7968 43.1023 42.6977 43.1023 45.402C43.1023 48.0868 44.9833 50.066 47.5772 50.066H55.3788V52.5548ZM70.2908 52.5548H57.4202V38.308H70.271V40.7968H59.9152V50.066H70.2908V52.5548ZM69.7364 46.3623H61.7566V44.2654H69.7364V46.3623ZM84.6422 52.5548H72.4449V38.308H74.9596V50.066H84.6422V52.5548Z" fill="#F8F9FA"/>
</g>
<defs>
<clipPath id="clip0_6129_725">
<rect width="78.8321" height="14.4526" fill="white" transform="translate(5.91309 38.1023)"/>
</clipPath>
</defs>
</svg>
