<svg width="662" height="670" viewBox="0 0 662 670" fill="none" xmlns="http://www.w3.org/2000/svg">
<path d="M550.159 578.516C592.344 578.516 626.541 469.425 626.541 334.855C626.541 200.285 592.344 91.1936 550.159 91.1936C507.975 91.1936 473.777 200.285 473.777 334.855C473.777 469.425 507.975 578.516 550.159 578.516Z" stroke="#191B1E" stroke-width="3" stroke-miterlimit="10"/>
<path d="M446.981 645.793C500.808 645.793 544.444 506.581 544.444 334.855C544.444 163.129 500.808 23.9176 446.981 23.9176C393.154 23.9176 349.519 163.129 349.519 334.855C349.519 506.581 393.154 645.793 446.981 645.793Z" stroke="#191B1E" stroke-width="3" stroke-miterlimit="10"/>
<path d="M333.045 667.709C390.667 667.709 437.379 518.685 437.379 334.855C437.379 151.024 390.667 2 333.045 2C275.423 2 228.711 151.024 228.711 334.855C228.711 518.685 275.423 667.709 333.045 667.709Z" stroke="#191B1E" stroke-width="3" stroke-miterlimit="10"/>
<path d="M219.108 645.793C272.935 645.793 316.57 506.581 316.57 334.855C316.57 163.129 272.935 23.9176 219.108 23.9176C165.281 23.9176 121.646 163.129 121.646 334.855C121.646 506.581 165.281 645.793 219.108 645.793Z" stroke="#191B1E" stroke-width="3" stroke-miterlimit="10"/>
<path d="M115.938 578.516C158.123 578.516 192.32 469.425 192.32 334.855C192.32 200.285 158.123 91.1936 115.938 91.1936C73.7539 91.1936 39.5566 200.285 39.5566 334.855C39.5566 469.425 73.7539 578.516 115.938 578.516Z" stroke="#191B1E" stroke-width="3" stroke-miterlimit="10"/>
<path d="M614.694 479.402C639.716 479.402 660 414.686 660 334.855C660 255.024 639.716 190.307 614.694 190.307C589.673 190.307 569.389 255.024 569.389 334.855C569.389 414.686 589.673 479.402 614.694 479.402Z" stroke="#191B1E" stroke-width="3" stroke-miterlimit="10"/>
<path d="M47.306 479.402C72.3279 479.402 92.6119 414.686 92.6119 334.855C92.6119 255.024 72.3279 190.307 47.306 190.307C22.2842 190.307 2 255.024 2 334.855C2 414.686 22.2842 479.402 47.306 479.402Z" stroke="#191B1E" stroke-width="3" stroke-miterlimit="10"/>
</svg>
