<svg width="569" height="569" viewBox="0 0 569 569" fill="none" xmlns="http://www.w3.org/2000/svg">
<path d="M284.638 353.736C322.8 353.736 353.736 322.8 353.736 284.638C353.736 246.476 322.8 215.54 284.638 215.54C246.476 215.54 215.54 246.476 215.54 284.638C215.54 322.8 246.476 353.736 284.638 353.736Z" stroke="#191B1E" stroke-width="3" stroke-miterlimit="10"/>
<path d="M284.637 567.275C333.566 567.275 373.23 440.734 373.23 284.638C373.23 128.541 333.566 2 284.637 2C235.709 2 196.044 128.541 196.044 284.638C196.044 440.734 235.709 567.275 284.637 567.275Z" stroke="#191B1E" stroke-width="3" stroke-miterlimit="10"/>
<path d="M284.638 373.23C440.734 373.23 567.275 333.566 567.275 284.637C567.275 235.708 440.734 196.044 284.638 196.044C128.541 196.044 2 235.708 2 284.637C2 333.566 128.541 373.23 284.638 373.23Z" stroke="#191B1E" stroke-width="3" stroke-miterlimit="10"/>
<path d="M347.284 347.28C457.661 236.903 519.092 119.378 484.495 84.7805C449.897 50.1827 332.372 111.614 221.995 221.991C111.618 332.368 50.1867 449.893 84.7845 484.491C119.382 519.088 236.907 457.657 347.284 347.28Z" stroke="#191B1E" stroke-width="3" stroke-miterlimit="10"/>
<path d="M484.495 484.49C519.092 449.892 457.661 332.367 347.284 221.99C236.907 111.613 119.382 50.1822 84.7845 84.7799C50.1867 119.378 111.618 236.903 221.995 347.28C332.372 457.657 449.897 519.088 484.495 484.49Z" stroke="#191B1E" stroke-width="3" stroke-miterlimit="10"/>
</svg>
