<svg width="28" height="28" viewBox="0 0 28 28" fill="none" xmlns="http://www.w3.org/2000/svg">
<path d="M7.29533 18.9361C12.5098 20.9711 16.9473 21.3675 21.9759 18.2C21.9391 18.2553 20.9443 19.7289 18.3285 20.4842C18.8811 21.2395 19.6364 22.1052 19.6364 22.1052C21.3128 22.1052 22.9522 21.6263 24.3706 20.7052C25.4759 19.9684 26.1022 18.6973 25.9732 17.371C25.7522 15.1052 25.218 12.8947 24.3891 10.7763C23.3391 8.01318 20.8154 6.09737 17.8864 5.82104C17.6285 5.80261 17.4443 5.80261 17.3338 5.80261L17.0391 6.09732C20.4102 7.05522 22.0865 8.54732 22.1233 8.60261C16.947 5.98679 10.8312 5.94999 5.61801 8.49208C5.61801 8.49208 7.27591 6.85261 10.9417 5.98679L10.7206 5.76575C10.3338 5.76575 9.96533 5.80261 9.57853 5.85784C6.87062 6.31836 4.60487 8.17889 3.62853 10.7394C2.78115 12.9499 2.22853 15.271 2.02591 17.6289C1.91539 18.8815 2.50487 20.1157 3.53644 20.8342C4.89958 21.7368 6.52062 22.2157 8.1601 22.2157C8.1601 22.2157 8.82324 21.3499 9.48644 20.5763C6.99958 19.8394 5.98644 18.3657 5.96801 18.3105L6.43602 18.5494C6.7158 18.6924 7.00264 18.8219 7.29533 18.9361ZM10.1864 17.3342C8.98905 17.2973 8.04958 16.2842 8.08644 15.0684C8.1233 13.9263 9.04434 13.0052 10.1864 12.9684C11.3838 13.0052 12.3233 14.0184 12.2864 15.2342C12.2311 16.3763 11.3285 17.2974 10.1864 17.3342ZM17.7022 17.3342C16.5048 17.2973 15.5653 16.2842 15.6022 15.0684C15.6391 13.9263 16.5601 13.0052 17.7022 12.9684C18.8996 13.0052 19.8391 14.0184 19.8022 15.2342C19.7654 16.3763 18.8443 17.2974 17.7022 17.3342Z" fill="white"/>
</svg>
