<svg width="90" height="90" viewBox="0 0 90 90" fill="none" xmlns="http://www.w3.org/2000/svg">
<rect width="90" height="90" rx="20" fill="#061B3A"/>
<path d="M34.4786 28.591H39.6558V34.3214L42.7453 37.6079L38.6537 41.8214L34.4786 37.6079V28.591Z" fill="#F8F9FA"/>
<path d="M34.4786 33.9843L34.8962 32.6359L35.1467 34.5742H37.4012L41.0753 37.6079H42.7453L38.6537 41.8214L34.4786 37.6079V33.9843Z" fill="#07A7BD"/>
<path d="M35.1467 29.0123H38.9877V34.6584L41.8268 37.6079L38.6892 40.7259L35.1467 37.1833V29.0123Z" fill="#0ADFDB"/>
<path d="M46.1689 48.7316L50.0935 44.518L55.5211 49.9956V61.7092L50.845 56.99V53.6192L46.1689 48.7316Z" fill="#F8F9FA"/>
<path d="M52.4316 55.3889L54.6861 57.2428L55.2706 54.7147L55.5211 57.917V61.7092L50.845 56.99V53.6192L52.4316 55.3889Z" fill="#08A8BE"/>
<path d="M46.1689 48.7316L49.509 45.1922L54.6861 50.5012L54.8531 60.0238L50.845 55.8945V53.6192L46.1689 48.7316Z" fill="url(#paint0_linear_6129_735)"/>
<path d="M53.9346 28.591H48.7575V34.3214L33.2261 49.9956V61.7092L37.9022 57.0743V53.7035L53.9346 37.6079V28.591Z" fill="#F8F9FA"/>
<path d="M53.9346 33.9843L53.5171 32.6359L53.2666 34.5742H51.012L47.338 37.6079L34.0611 50.2484L33.8941 55.4732L33.5601 53.1979L33.2261 56.2316V61.7092L37.9022 57.0743V53.7035L53.9346 37.6079V33.9843Z" fill="url(#paint1_linear_6129_735)"/>
<path d="M41.6598 28.591H46.8369V33.6472L44.2484 36.1753L41.6598 33.6472V28.591Z" fill="#06638C"/>
<path d="M57.0242 16.7932H63.0363V27.9168H57.0242V16.7932Z" fill="#F8F9FA"/>
<path d="M39.6558 14.9392H48.841V19.0684H55.5211V26.0629H39.6558V14.9392Z" fill="#F8F9FA"/>
<path d="M37.7352 18.6471V26.0629C30.1198 25.5235 22.0368 29.6022 18.9473 31.709C24.6254 22.8775 33.8385 19.3213 37.7352 18.6471Z" fill="#F8F9FA"/>
<path d="M37.7352 22.355V26.0629C30.1198 25.5235 22.0368 29.6022 18.9473 31.709C25.3769 23.4505 33.8941 22.355 37.7352 22.355Z" fill="#0ADFDB"/>
<path d="M37.7352 24.1247V26.0629C30.1198 25.5235 22.0368 29.6022 18.9473 31.709C26.7965 24.8831 33.8941 24.1247 37.7352 24.1247Z" fill="#06638C"/>
<path d="M34.9797 62.9395L39.4553 58.4227L43.196 62.1978L38.7203 66.7146L34.9797 62.9395Z" fill="#F8F9FA"/>
<path d="M34.9797 62.9395L38.6788 59.2063L42.4195 62.9814L38.7203 66.7146L34.9797 62.9395Z" fill="url(#paint2_linear_6129_735)"/>
<path d="M38.7203 66.7146L42.4195 62.9814L41.9938 62.5519L38.7203 65.7541L35.4807 62.4676L34.9797 62.9395L38.7203 66.7146Z" fill="#08A8BE"/>
<path d="M39.8228 67.7766L49.1415 58.4227L53.5212 62.8427L41.5763 74.6868L39.8228 72.4957V67.7766Z" fill="#F8F9FA"/>
<path d="M40.0733 68.7036L40.4908 71.4845L51.3314 60.6327L53.5212 62.8427L41.5763 74.6868L39.8228 72.4957V70.1362L40.0733 68.7036Z" fill="#08A8BE"/>
<path d="M40.4073 68.1137L49.7595 59.0968L52.8491 62.2148L41.6598 73.7598L40.4073 72.0744V68.1137Z" fill="#0ADFDB"/>
<path d="M40.4073 68.1137L49.7595 59.0968L52.8491 62.2148L41.6598 73.7598L40.4073 72.0744V68.1137Z" fill="url(#paint3_linear_6129_735)"/>
<path d="M45.9369 73.1512L49.342 69.6306V72.7486L47.4679 74.6963L45.9369 73.1512Z" fill="#08A8BE"/>
<path d="M43.3299 51.1754H45.3339L47.338 53.3664H41.3258L43.3299 51.1754Z" fill="#F8F9FA"/>
<path d="M45.3339 59.0968H43.3299L41.3258 56.9058H47.338L45.3339 59.0968Z" fill="#F8F9FA"/>
<path d="M57.1912 22.1864H63.0363V27.9168H57.1912V22.1864Z" fill="#0ADFDB"/>
<path d="M57.1912 24.546H61.575C61.575 24.546 61.8845 25.284 62.2245 25.6415C62.4964 25.9274 63.0363 26.2314 63.0363 26.2314V27.9168H57.1912V24.546Z" fill="url(#paint4_linear_6129_735)"/>
<path d="M39.6558 22.355H55.5211V26.0629H39.6558V22.355Z" fill="#0ADFDB"/>
<path d="M39.6558 24.546H55.5211V26.0629H39.6558V24.546Z" fill="#0ADFDB"/>
<path d="M39.6558 24.546H55.5211V26.0629H39.6558V24.546Z" fill="url(#paint5_linear_6129_735)"/>
<path d="M53.3501 29.0123H49.342V34.827L33.8106 50.3327V60.1923L37.4012 56.5687V53.2821L53.3501 37.1865V29.0123Z" fill="#0ADFDB"/>
<path d="M41.6598 28.591H46.8369V29.7708H41.6598V28.591Z" fill="#06638C"/>
<defs>
<linearGradient id="paint0_linear_6129_735" x1="40.9918" y1="14.9392" x2="42.8956" y2="120.212" gradientUnits="userSpaceOnUse">
<stop stop-color="#0ADFDB"/>
<stop offset="1" stop-color="#08A8BE"/>
</linearGradient>
<linearGradient id="paint1_linear_6129_735" x1="40.814" y1="40.2277" x2="56.9893" y2="61.4218" gradientUnits="userSpaceOnUse">
<stop stop-color="#07A7BD"/>
<stop offset="0.0001" stop-color="#07A7BD"/>
<stop offset="0.545" stop-color="#0ADFDB"/>
<stop offset="1" stop-color="#07A7BD"/>
</linearGradient>
<linearGradient id="paint2_linear_6129_735" x1="40.9918" y1="14.9392" x2="33.2443" y2="97.5898" gradientUnits="userSpaceOnUse">
<stop stop-color="#0ADFDB"/>
<stop offset="1" stop-color="#08A8BE"/>
</linearGradient>
<linearGradient id="paint3_linear_6129_735" x1="40.9918" y1="14.9392" x2="-17.8915" y2="27.9074" gradientUnits="userSpaceOnUse">
<stop stop-color="#0ADFDB"/>
<stop offset="1" stop-color="#08A8BE"/>
</linearGradient>
<linearGradient id="paint4_linear_6129_735" x1="40.9918" y1="14.9392" x2="40.9918" y2="74.6963" gradientUnits="userSpaceOnUse">
<stop stop-color="#045D85"/>
<stop offset="0.765" stop-color="#097099"/>
<stop offset="1" stop-color="#18DFE6"/>
</linearGradient>
<linearGradient id="paint5_linear_6129_735" x1="41.2238" y1="14.9392" x2="41.2234" y2="107.895" gradientUnits="userSpaceOnUse">
<stop stop-color="#045D85"/>
<stop offset="0.41" stop-color="#097099"/>
<stop offset="0.95" stop-color="#18DFE6"/>
</linearGradient>
</defs>
</svg>
